<?xml version="1.0" encoding="utf-8"?>
<!-- Generator: Adobe Illustrator 27.0.0, SVG Export Plug-In . SVG Version: 6.00 Build 0)  -->
<svg version="1.1" id="katman_1" xmlns="http://www.w3.org/2000/svg" xmlns:xlink="http://www.w3.org/1999/xlink" x="0px" y="0px"
	 viewBox="0 0 1440 721" style="enable-background:new 0 0 1440 721;" xml:space="preserve">
<style type="text/css">
	.st0{opacity:0.1;fill:url(#SVGID_1_);}
	.st1{fill-rule:evenodd;clip-rule:evenodd;fill:url(#SVGID_00000102509596383259092790000004815597009794428852_);}
	.st2{fill-rule:evenodd;clip-rule:evenodd;fill:url(#SVGID_00000017489983693702448520000011828296569017951382_);}
	.st3{fill-rule:evenodd;clip-rule:evenodd;fill:url(#SVGID_00000009577670637321657000000017335765020351417514_);}
	.st4{fill-rule:evenodd;clip-rule:evenodd;fill:url(#SVGID_00000041980151537883596260000013545785071237703868_);}
	.st5{fill-rule:evenodd;clip-rule:evenodd;fill:url(#SVGID_00000023278034997060715450000015783581086182940861_);}
	.st6{fill-rule:evenodd;clip-rule:evenodd;fill:url(#SVGID_00000155125293455564770070000012203470377353824131_);}
	.st7{fill-rule:evenodd;clip-rule:evenodd;fill:url(#SVGID_00000015354315182311957600000003120199570031996065_);}
	.st8{fill-rule:evenodd;clip-rule:evenodd;fill:url(#SVGID_00000093897997376628212160000009480852948869067916_);}
	.st9{fill-rule:evenodd;clip-rule:evenodd;fill:url(#SVGID_00000178169330333163828150000010472366022316005042_);}
	.st10{fill-rule:evenodd;clip-rule:evenodd;fill:url(#SVGID_00000073722439848788212020000008489604652589815976_);}
	.st11{fill-rule:evenodd;clip-rule:evenodd;fill:url(#SVGID_00000043419325502314968500000008357041644682143407_);}
	.st12{fill-rule:evenodd;clip-rule:evenodd;fill:url(#SVGID_00000078737314876749417080000009507855576263128493_);}
	.st13{fill-rule:evenodd;clip-rule:evenodd;fill:url(#SVGID_00000101100707403073095460000005858467524488935047_);}
	.st14{fill-rule:evenodd;clip-rule:evenodd;fill:url(#SVGID_00000143586249057934816360000015462978583721953177_);}
	.st15{fill-rule:evenodd;clip-rule:evenodd;fill:url(#SVGID_00000054230584224497245540000018322957267012048054_);}
	.st16{fill-rule:evenodd;clip-rule:evenodd;fill:url(#SVGID_00000083069341102786336290000003878202722585076900_);}
	.st17{fill-rule:evenodd;clip-rule:evenodd;fill:url(#SVGID_00000077294420866584230850000004787009499676926376_);}
	.st18{fill-rule:evenodd;clip-rule:evenodd;fill:url(#SVGID_00000085944457513958058040000005174332892096257172_);}
	.st19{fill-rule:evenodd;clip-rule:evenodd;fill:url(#SVGID_00000055667484953216567320000015143329568241739967_);}
	.st20{fill-rule:evenodd;clip-rule:evenodd;fill:url(#SVGID_00000026870729082949913080000014307557710461473457_);}
	.st21{fill-rule:evenodd;clip-rule:evenodd;fill:url(#SVGID_00000139265375991545730710000002910285774851244191_);}
	.st22{fill-rule:evenodd;clip-rule:evenodd;fill:url(#SVGID_00000083811231116555759670000013201033682956302466_);}
	.st23{fill-rule:evenodd;clip-rule:evenodd;fill:url(#SVGID_00000123437240125771378930000015320777912194297256_);}
	.st24{fill-rule:evenodd;clip-rule:evenodd;fill:url(#SVGID_00000064352261009573115330000009529881858290126777_);}
	.st25{fill-rule:evenodd;clip-rule:evenodd;fill:url(#SVGID_00000075123820670016912570000006445991532548056739_);}
	.st26{fill-rule:evenodd;clip-rule:evenodd;fill:url(#SVGID_00000070808421108347709670000006790480687091730836_);}
	.st27{fill-rule:evenodd;clip-rule:evenodd;fill:url(#SVGID_00000030463484063937558460000002582390349063743385_);}
	.st28{fill-rule:evenodd;clip-rule:evenodd;fill:url(#SVGID_00000008142910455563651450000015741970917650752916_);}
	.st29{fill-rule:evenodd;clip-rule:evenodd;fill:url(#SVGID_00000038404396564573298810000017771472984576703931_);}
	.st30{fill-rule:evenodd;clip-rule:evenodd;fill:url(#SVGID_00000118374067589300771030000000147149909495626912_);}
	.st31{fill-rule:evenodd;clip-rule:evenodd;fill:url(#SVGID_00000173130521477027624200000002568914765848064410_);}
	.st32{fill-rule:evenodd;clip-rule:evenodd;fill:url(#SVGID_00000150078945296959287660000010736020225236650904_);}
	.st33{fill-rule:evenodd;clip-rule:evenodd;fill:url(#SVGID_00000070120195001998077320000005037292795997479330_);}
	.st34{fill-rule:evenodd;clip-rule:evenodd;fill:url(#SVGID_00000008110990841365199640000016117681485202258572_);}
	.st35{fill-rule:evenodd;clip-rule:evenodd;fill:url(#SVGID_00000074412291504335737070000016067184792837182877_);}
	.st36{fill-rule:evenodd;clip-rule:evenodd;fill:url(#SVGID_00000049223327748918290120000009966814584054103428_);}
	.st37{fill-rule:evenodd;clip-rule:evenodd;fill:url(#SVGID_00000172423365483383089230000005785154082754994099_);}
	.st38{fill-rule:evenodd;clip-rule:evenodd;fill:url(#SVGID_00000137848132588137357900000005608173924953193150_);}
	.st39{fill-rule:evenodd;clip-rule:evenodd;fill:url(#SVGID_00000168811801524177078310000009712560601120778132_);}
	.st40{fill-rule:evenodd;clip-rule:evenodd;fill:url(#SVGID_00000094610808932025114590000008756557086687638684_);}
	.st41{fill-rule:evenodd;clip-rule:evenodd;fill:url(#SVGID_00000031176260692680023340000015921990556964033973_);}
	.st42{fill-rule:evenodd;clip-rule:evenodd;fill:url(#SVGID_00000096754457160235326660000007617390917188631456_);}
	.st43{fill-rule:evenodd;clip-rule:evenodd;fill:url(#SVGID_00000026155550799566202930000000637071423679788478_);}
	.st44{opacity:0.4721;}
	.st45{fill:none;}
	.st46{fill:none;stroke:url(#path-2_00000163759491627107321280000016025941173818484356_);stroke-width:2.4895;}
	.st47{opacity:0.6;}
	.st48{fill:none;stroke:url(#path-6_00000168106634581495605730000001049980765614646181_);stroke-width:2.4895;}
	.st49{opacity:0.4;}
	.st50{fill:none;stroke:url(#path-10_00000052089064513787664900000018063666251335612308_);stroke-width:2.4895;}
	.st51{opacity:0.2;}
	.st52{fill:none;stroke:url(#path-14_00000134967485286579639960000000797152653295766715_);stroke-width:2.4895;}
	.st53{opacity:0.1;}
	.st54{fill:none;stroke:url(#path-18_00000039828024277408789130000009620826413660407997_);stroke-width:2.4895;}
	.st55{fill:none;stroke:#4AB081;stroke-width:2;stroke-linecap:round;stroke-linejoin:round;stroke-miterlimit:10;}
	.st56{opacity:0.6;fill:#4AB081;enable-background:new    ;}
	.st57{opacity:0.5;fill:#4AB081;enable-background:new    ;}
	.st58{opacity:0.25;fill:#4AB081;enable-background:new    ;}
	.st59{opacity:0.4;fill:#4AB081;enable-background:new    ;}
	.st60{opacity:0.3;fill:#4AB081;enable-background:new    ;}
	.st61{fill:none;stroke:#4AB081;stroke-width:1.0028;stroke-linecap:round;stroke-linejoin:round;stroke-miterlimit:10;}
	.st62{opacity:0.5;}
	.st63{fill:none;stroke:#4AB081;stroke-width:0.6897;stroke-linecap:round;stroke-linejoin:round;stroke-miterlimit:10;}
</style>
<g>
	<g>
		
			<linearGradient id="SVGID_1_" gradientUnits="userSpaceOnUse" x1="720" y1="157.0216" x2="720" y2="69.0216" gradientTransform="matrix(1 0 0 -1 0 790.0432)">
			<stop  offset="0" style="stop-color:#4AB08B"/>
			<stop  offset="1" style="stop-color:#4AB08B;stop-opacity:0"/>
		</linearGradient>
		<path class="st0" d="M1440,721H0l0-88h1440V721z"/>
		
			<linearGradient id="SVGID_00000134223139282648660340000018298627452106311854_" gradientUnits="userSpaceOnUse" x1="934.8231" y1="155.0211" x2="934.8231" y2="278.0211" gradientTransform="matrix(1 0 0 -1 0 790.0432)">
			<stop  offset="0" style="stop-color:#4AB08B"/>
			<stop  offset="1" style="stop-color:#008296"/>
		</linearGradient>
		<path style="fill-rule:evenodd;clip-rule:evenodd;fill:url(#SVGID_00000134223139282648660340000018298627452106311854_);" d="
			M1079.8,635c0.2-0.1,0.2-0.2,0-0.3L790.5,512.1c-0.2-0.1-0.5-0.1-0.7,0c-0.2,0.1-0.2,0.2,0,0.3L1079.1,635
			C1079.3,635,1079.6,635,1079.8,635z"/>
		
			<linearGradient id="SVGID_00000075132024835029360020000013734857387924928928_" gradientUnits="userSpaceOnUse" x1="1185.3184" y1="205.8964" x2="1185.3184" y2="278.0214" gradientTransform="matrix(1 0 0 -1 0 790.0432)">
			<stop  offset="0" style="stop-color:#4AB08B"/>
			<stop  offset="1" style="stop-color:#008296"/>
		</linearGradient>
		<path style="fill-rule:evenodd;clip-rule:evenodd;fill:url(#SVGID_00000075132024835029360020000013734857387924928928_);" d="
			M1440.1,584c0.1-0.1,0-0.2-0.3-0.2L931.2,512c-0.3,0-0.5,0-0.6,0.1c-0.1,0.1,0,0.2,0.3,0.2l508.5,71.7
			C1439.7,584.2,1440,584.1,1440.1,584z"/>
		
			<linearGradient id="SVGID_00000148620867140238202320000012363343067827724718_" gradientUnits="userSpaceOnUse" x1="719.426" y1="155.0216" x2="719.426" y2="278.0216" gradientTransform="matrix(1 0 0 -1 0 790.0432)">
			<stop  offset="0" style="stop-color:#4AB08B"/>
			<stop  offset="1" style="stop-color:#008296"/>
		</linearGradient>
		<path style="fill-rule:evenodd;clip-rule:evenodd;fill:url(#SVGID_00000148620867140238202320000012363343067827724718_);" d="
			M719.2,635c0.3,0,0.5-0.1,0.5-0.2l0.5-122.6c0-0.1-0.2-0.2-0.5-0.2s-0.5,0.1-0.5,0.2l-0.5,122.6C718.7,634.9,718.9,635,719.2,635z
			"/>
		
			<linearGradient id="SVGID_00000101792349069426528410000000317406094500115634_" gradientUnits="userSpaceOnUse" x1="1326.2249" y1="263.94" x2="1326.2249" y2="278.0211" gradientTransform="matrix(1 0 0 -1 0 790.0432)">
			<stop  offset="0" style="stop-color:#4AB08B"/>
			<stop  offset="1" style="stop-color:#008296"/>
		</linearGradient>
		<path style="fill-rule:evenodd;clip-rule:evenodd;fill:url(#SVGID_00000101792349069426528410000000317406094500115634_);" d="
			M1440.1,525.9c0-0.1-0.1-0.2-0.4-0.2L1212.9,512c-0.3,0-0.5,0.1-0.6,0.2c0,0.1,0.1,0.2,0.4,0.2l226.7,13.7
			C1439.8,526.1,1440,526,1440.1,525.9z"/>
		
			<linearGradient id="SVGID_00000007414648618504740970000008062602417507673998_" gradientUnits="userSpaceOnUse" x1="1361.4501" y1="269.3798" x2="1361.4501" y2="278.0213" gradientTransform="matrix(1 0 0 -1 0 790.0432)">
			<stop  offset="0" style="stop-color:#4AB08B"/>
			<stop  offset="1" style="stop-color:#008296"/>
		</linearGradient>
		<path style="fill-rule:evenodd;clip-rule:evenodd;fill:url(#SVGID_00000007414648618504740970000008062602417507673998_);" d="
			M1440.1,520.5c0-0.1-0.1-0.2-0.4-0.2l-156.3-8.3c-0.3,0-0.5,0.1-0.6,0.2c0,0.1,0.2,0.2,0.4,0.2l156.3,8.3
			C1439.8,520.7,1440,520.6,1440.1,520.5z"/>
		
			<linearGradient id="SVGID_00000049197629333430268060000012761607014658156716_" gradientUnits="userSpaceOnUse" x1="1255.77" y1="246.5319" x2="1255.77" y2="278.0213" gradientTransform="matrix(1 0 0 -1 0 790.0432)">
			<stop  offset="0" style="stop-color:#4AB08B"/>
			<stop  offset="1" style="stop-color:#008296"/>
		</linearGradient>
		<path style="fill-rule:evenodd;clip-rule:evenodd;fill:url(#SVGID_00000049197629333430268060000012761607014658156716_);" d="
			M1440.1,543.4c0.1-0.1-0.1-0.2-0.4-0.2L1072.1,512c-0.3,0-0.5,0-0.6,0.1c-0.1,0.1,0.1,0.2,0.4,0.2l367.6,31.1
			C1439.7,543.5,1440,543.5,1440.1,543.4z"/>
		
			<linearGradient id="SVGID_00000039847080413509073090000015046658992184586681_" gradientUnits="userSpaceOnUse" x1="1220.545" y1="231.2966" x2="1220.545" y2="278.0215" gradientTransform="matrix(1 0 0 -1 0 790.0432)">
			<stop  offset="0" style="stop-color:#4AB08B"/>
			<stop  offset="1" style="stop-color:#008296"/>
		</linearGradient>
		<path style="fill-rule:evenodd;clip-rule:evenodd;fill:url(#SVGID_00000039847080413509073090000015046658992184586681_);" d="
			M1440.1,558.6c0.1-0.1-0.1-0.2-0.3-0.2L1001.6,512c-0.3,0-0.5,0-0.6,0.1c-0.1,0.1,0.1,0.2,0.3,0.2l438.1,46.3
			C1439.7,558.8,1440,558.7,1440.1,558.6z"/>
		
			<linearGradient id="SVGID_00000073703539102016201870000014998220195688267176_" gradientUnits="userSpaceOnUse" x1="1290.9951" y1="256.6864" x2="1290.9951" y2="278.0208" gradientTransform="matrix(1 0 0 -1 0 790.0432)">
			<stop  offset="0" style="stop-color:#4AB08B"/>
			<stop  offset="1" style="stop-color:#008296"/>
		</linearGradient>
		<path style="fill-rule:evenodd;clip-rule:evenodd;fill:url(#SVGID_00000073703539102016201870000014998220195688267176_);" d="
			M1440.1,533.2c0.1-0.1-0.1-0.2-0.4-0.2l-297.2-21c-0.3,0-0.5,0-0.6,0.2c-0.1,0.1,0.1,0.2,0.4,0.2l297.2,21
			C1439.8,533.4,1440,533.3,1440.1,533.2z"/>
		
			<linearGradient id="SVGID_00000029749168500554501470000016774690940821390249_" gradientUnits="userSpaceOnUse" x1="113.2805" y1="263.963" x2="113.2805" y2="278.0211" gradientTransform="matrix(1 0 0 -1 0 790.0432)">
			<stop  offset="0" style="stop-color:#4AB08B"/>
			<stop  offset="1" style="stop-color:#008296"/>
		</linearGradient>
		<path style="fill-rule:evenodd;clip-rule:evenodd;fill:url(#SVGID_00000029749168500554501470000016774690940821390249_);" d="
			M-0.4,525.9c0,0.1,0.3,0.2,0.6,0.2l226.5-13.7c0.3,0,0.5-0.1,0.4-0.2c0-0.1-0.3-0.2-0.6-0.2L0,525.7
			C-0.3,525.7-0.5,525.8-0.4,525.9z"/>
		
			<linearGradient id="SVGID_00000137090541557244954440000016531006284373565340_" gradientUnits="userSpaceOnUse" x1="1396.6799" y1="273.6101" x2="1396.6799" y2="278.0211" gradientTransform="matrix(1 0 0 -1 0 790.0432)">
			<stop  offset="0" style="stop-color:#4AB08B"/>
			<stop  offset="1" style="stop-color:#008296"/>
		</linearGradient>
		<path style="fill-rule:evenodd;clip-rule:evenodd;fill:url(#SVGID_00000137090541557244954440000016531006284373565340_);" d="
			M1440.1,516.3c0-0.1-0.2-0.2-0.4-0.2l-85.8-4c-0.3,0-0.5,0.1-0.6,0.2c0,0.1,0.2,0.2,0.4,0.2l85.8,4
			C1439.8,516.4,1440.1,516.4,1440.1,516.3z"/>
		
			<linearGradient id="SVGID_00000157275498327258056210000002331164583659672724_" gradientUnits="userSpaceOnUse" x1="1431.905" y1="276.9943" x2="1431.905" y2="278.0208" gradientTransform="matrix(1 0 0 -1 0 790.0432)">
			<stop  offset="0" style="stop-color:#4AB08B"/>
			<stop  offset="1" style="stop-color:#008296"/>
		</linearGradient>
		<path style="fill-rule:evenodd;clip-rule:evenodd;fill:url(#SVGID_00000157275498327258056210000002331164583659672724_);" d="
			M1440.1,512.9c0-0.1-0.2-0.2-0.4-0.2l-15.3-0.6c-0.3,0-0.5,0.1-0.6,0.2c0,0.1,0.2,0.2,0.4,0.2l15.4,0.6
			C1439.8,513.1,1440.1,513,1440.1,512.9z"/>
		
			<linearGradient id="SVGID_00000010303753517444123750000007627057727981205906_" gradientUnits="userSpaceOnUse" x1="148.5067" y1="256.7174" x2="148.5067" y2="278.0211" gradientTransform="matrix(1 0 0 -1 0 790.0432)">
			<stop  offset="0" style="stop-color:#4AB08B"/>
			<stop  offset="1" style="stop-color:#008296"/>
		</linearGradient>
		<path style="fill-rule:evenodd;clip-rule:evenodd;fill:url(#SVGID_00000010303753517444123750000007627057727981205906_);" d="
			M-0.4,533.2c0.1,0.1,0.3,0.2,0.6,0.2l296.9-20.9c0.3,0,0.5-0.1,0.4-0.2c-0.1-0.1-0.3-0.2-0.6-0.2L0,533
			C-0.3,533-0.5,533.1-0.4,533.2z"/>
		
			<linearGradient id="SVGID_00000166672070293710155210000002097934297797865385_" gradientUnits="userSpaceOnUse" x1="218.9612" y1="231.3645" x2="218.9612" y2="278.0215" gradientTransform="matrix(1 0 0 -1 0 790.0432)">
			<stop  offset="0" style="stop-color:#4AB08B"/>
			<stop  offset="1" style="stop-color:#008296"/>
		</linearGradient>
		<path style="fill-rule:evenodd;clip-rule:evenodd;fill:url(#SVGID_00000166672070293710155210000002097934297797865385_);" d="
			M-0.4,558.5c0.1,0.1,0.4,0.2,0.6,0.1L438,512.4c0.3,0,0.4-0.1,0.3-0.2c-0.1-0.1-0.4-0.2-0.6-0.1L-0.1,558.3
			C-0.4,558.3-0.5,558.4-0.4,558.5z"/>
		
			<linearGradient id="SVGID_00000174592323954123745990000008627330167298104487_" gradientUnits="userSpaceOnUse" x1="504.032" y1="155.0217" x2="504.032" y2="278.0211" gradientTransform="matrix(1 0 0 -1 0 790.0432)">
			<stop  offset="0" style="stop-color:#4AB08B"/>
			<stop  offset="1" style="stop-color:#008296"/>
		</linearGradient>
		<path style="fill-rule:evenodd;clip-rule:evenodd;fill:url(#SVGID_00000174592323954123745990000008627330167298104487_);" d="
			M358.5,635c0.2,0.1,0.5,0.1,0.7,0l290.4-122.6c0.2-0.1,0.2-0.2,0-0.3c-0.2-0.1-0.5-0.1-0.7,0L358.5,634.7
			C358.3,634.8,358.3,634.9,358.5,635z"/>
		
			<linearGradient id="SVGID_00000131327536279984313590000006630969659885979295_" gradientUnits="userSpaceOnUse" x1="78.0513" y1="269.3966" x2="78.0513" y2="278.0213" gradientTransform="matrix(1 0 0 -1 0 790.0432)">
			<stop  offset="0" style="stop-color:#4AB08B"/>
			<stop  offset="1" style="stop-color:#008296"/>
		</linearGradient>
		<path style="fill-rule:evenodd;clip-rule:evenodd;fill:url(#SVGID_00000131327536279984313590000006630969659885979295_);" d="
			M-0.4,520.5c0,0.1,0.3,0.2,0.6,0.2l156-8.2c0.3,0,0.5-0.1,0.4-0.2c0-0.1-0.3-0.2-0.6-0.2L0,520.3C-0.3,520.3-0.5,520.4-0.4,520.5z
			"/>
		
			<linearGradient id="SVGID_00000070102945137524326760000001070935956429121689_" gradientUnits="userSpaceOnUse" x1="183.734" y1="246.5759" x2="183.734" y2="278.0213" gradientTransform="matrix(1 0 0 -1 0 790.0432)">
			<stop  offset="0" style="stop-color:#4AB08B"/>
			<stop  offset="1" style="stop-color:#008296"/>
		</linearGradient>
		<path style="fill-rule:evenodd;clip-rule:evenodd;fill:url(#SVGID_00000070102945137524326760000001070935956429121689_);" d="
			M-0.4,543.3c0.1,0.1,0.3,0.2,0.6,0.1l367.4-31.1c0.3,0,0.4-0.1,0.4-0.2c-0.1-0.1-0.3-0.2-0.6-0.1L-0.1,543.1
			C-0.3,543.1-0.5,543.2-0.4,543.3z"/>
		
			<linearGradient id="SVGID_00000084504626409651757660000012166602238344991105_" gradientUnits="userSpaceOnUse" x1="254.1903" y1="206.0184" x2="254.1903" y2="278.0214" gradientTransform="matrix(1 0 0 -1 0 790.0432)">
			<stop  offset="0" style="stop-color:#4AB08B"/>
			<stop  offset="1" style="stop-color:#008296"/>
		</linearGradient>
		<path style="fill-rule:evenodd;clip-rule:evenodd;fill:url(#SVGID_00000084504626409651757660000012166602238344991105_);" d="
			M-0.4,583.9C-0.3,584,0,584,0.2,584l508.3-71.6c0.3,0,0.4-0.1,0.3-0.2c-0.1-0.1-0.4-0.1-0.6-0.1L-0.1,583.7
			C-0.4,583.7-0.5,583.8-0.4,583.9z"/>
		
			<linearGradient id="SVGID_00000176752908479286191920000002255278127714751142_" gradientUnits="userSpaceOnUse" x1="7.6001" y1="277.0053" x2="7.6001" y2="278.0208" gradientTransform="matrix(1 0 0 -1 0 790.0432)">
			<stop  offset="0" style="stop-color:#4AB08B"/>
			<stop  offset="1" style="stop-color:#008296"/>
		</linearGradient>
		<path style="fill-rule:evenodd;clip-rule:evenodd;fill:url(#SVGID_00000176752908479286191920000002255278127714751142_);" d="
			M-0.4,512.9c0,0.1,0.3,0.2,0.6,0.2l15.1-0.6c0.3,0,0.5-0.1,0.4-0.2c0-0.1-0.3-0.2-0.6-0.2L0,512.7C-0.3,512.7-0.5,512.8-0.4,512.9
			z"/>
		
			<linearGradient id="SVGID_00000107570442779444190240000012089113289467767724_" gradientUnits="userSpaceOnUse" x1="42.8273" y1="273.6241" x2="42.8273" y2="278.0211" gradientTransform="matrix(1 0 0 -1 0 790.0432)">
			<stop  offset="0" style="stop-color:#4AB08B"/>
			<stop  offset="1" style="stop-color:#008296"/>
		</linearGradient>
		<path style="fill-rule:evenodd;clip-rule:evenodd;fill:url(#SVGID_00000107570442779444190240000012089113289467767724_);" d="
			M-0.4,516.3c0,0.1,0.3,0.2,0.6,0.2l85.6-4c0.3,0,0.5-0.1,0.4-0.2c0-0.1-0.3-0.2-0.6-0.2L0,516C-0.3,516.1-0.5,516.2-0.4,516.3z"/>
		
			<linearGradient id="SVGID_00000087381452405908986580000002143932752207963273_" gradientUnits="userSpaceOnUse" x1="288.6389" y1="155.0216" x2="288.6389" y2="278.0216" gradientTransform="matrix(1 0 0 -1 0 790.0432)">
			<stop  offset="0" style="stop-color:#4AB08B"/>
			<stop  offset="1" style="stop-color:#008296"/>
		</linearGradient>
		<path style="fill-rule:evenodd;clip-rule:evenodd;fill:url(#SVGID_00000087381452405908986580000002143932752207963273_);" d="
			M-1.9,634.9c0.1,0.1,0.4,0.1,0.7,0.1L579,512.4c0.2-0.1,0.3-0.2,0.2-0.3c-0.1-0.1-0.4-0.1-0.7-0.1L-1.7,634.7
			C-2,634.7-2.1,634.8-1.9,634.9z"/>
		
			<linearGradient id="SVGID_00000018957066944045880030000009304518727132644752_" gradientUnits="userSpaceOnUse" x1="1150.2172" y1="155.0213" x2="1150.2172" y2="278.0216" gradientTransform="matrix(1 0 0 -1 0 790.0432)">
			<stop  offset="0" style="stop-color:#4AB08B"/>
			<stop  offset="1" style="stop-color:#008296"/>
		</linearGradient>
		<path style="fill-rule:evenodd;clip-rule:evenodd;fill:url(#SVGID_00000018957066944045880030000009304518727132644752_);" d="
			M1440.3,634.9c0.1-0.1,0-0.2-0.2-0.3L860.8,512c-0.2-0.1-0.5,0-0.7,0.1c-0.1,0.1,0,0.2,0.2,0.3L1439.6,635
			C1439.8,635,1440.1,635,1440.3,634.9z"/>
		
			<linearGradient id="SVGID_00000005984100554331651720000006152195607929769366_" gradientUnits="userSpaceOnUse" x1="719.8144" y1="206.5006" x2="719.8144" y2="206.8776" gradientTransform="matrix(1 0 0 -1 0 790.0432)">
			<stop  offset="0" style="stop-color:#4AB08B"/>
			<stop  offset="1" style="stop-color:#008296"/>
		</linearGradient>
		<path style="fill-rule:evenodd;clip-rule:evenodd;fill:url(#SVGID_00000005984100554331651720000006152195607929769366_);" d="
			M-0.5,583.4c0,0.1,0.2,0.2,0.5,0.2h1439.5c0.3,0,0.5-0.1,0.5-0.2c0-0.1-0.2-0.2-0.5-0.2H0C-0.2,583.2-0.5,583.2-0.5,583.4z"/>
		
			<linearGradient id="SVGID_00000116210095932207855110000011301478328490889887_" gradientUnits="userSpaceOnUse" x1="719.8144" y1="255.8086" x2="719.8144" y2="256.1856" gradientTransform="matrix(1 0 0 -1 0 790.0432)">
			<stop  offset="0" style="stop-color:#4AB08B"/>
			<stop  offset="1" style="stop-color:#008296"/>
		</linearGradient>
		<path style="fill-rule:evenodd;clip-rule:evenodd;fill:url(#SVGID_00000116210095932207855110000011301478328490889887_);" d="
			M-0.5,534c0,0.1,0.2,0.2,0.5,0.2h1439.5c0.3,0,0.5-0.1,0.5-0.2s-0.2-0.2-0.5-0.2H0C-0.2,533.9-0.5,533.9-0.5,534z"/>
		
			<linearGradient id="SVGID_00000053514754799136014680000001639031900457415298_" gradientUnits="userSpaceOnUse" x1="719.8144" y1="239.1206" x2="719.8144" y2="239.4986" gradientTransform="matrix(1 0 0 -1 0 790.0432)">
			<stop  offset="0" style="stop-color:#4AB08B"/>
			<stop  offset="1" style="stop-color:#008296"/>
		</linearGradient>
		<path style="fill-rule:evenodd;clip-rule:evenodd;fill:url(#SVGID_00000053514754799136014680000001639031900457415298_);" d="
			M-0.5,550.7c0,0.1,0.2,0.2,0.5,0.2h1439.5c0.3,0,0.5-0.1,0.5-0.2s-0.2-0.2-0.5-0.2H0C-0.2,550.5-0.5,550.6-0.5,550.7z"/>
		
			<linearGradient id="SVGID_00000158708414272538370140000009943754204825534347_" gradientUnits="userSpaceOnUse" x1="719.8144" y1="220.3596" x2="719.8144" y2="220.7366" gradientTransform="matrix(1 0 0 -1 0 790.0432)">
			<stop  offset="0" style="stop-color:#4AB08B"/>
			<stop  offset="1" style="stop-color:#008296"/>
		</linearGradient>
		<path style="fill-rule:evenodd;clip-rule:evenodd;fill:url(#SVGID_00000158708414272538370140000009943754204825534347_);" d="
			M-0.5,569.5c0,0.1,0.2,0.2,0.5,0.2h1439.5c0.3,0,0.5-0.1,0.5-0.2c0-0.1-0.2-0.2-0.5-0.2H0C-0.2,569.3-0.5,569.4-0.5,569.5z"/>
		
			<linearGradient id="SVGID_00000168803439472191850160000008701269817816759695_" gradientUnits="userSpaceOnUse" x1="719.8144" y1="187.3946" x2="719.8144" y2="187.7716" gradientTransform="matrix(1 0 0 -1 0 790.0432)">
			<stop  offset="0" style="stop-color:#4AB08B"/>
			<stop  offset="1" style="stop-color:#008296"/>
		</linearGradient>
		<path style="fill-rule:evenodd;clip-rule:evenodd;fill:url(#SVGID_00000168803439472191850160000008701269817816759695_);" d="
			M-0.5,602.5c0,0.1,0.2,0.2,0.5,0.2h1439.5c0.3,0,0.5-0.1,0.5-0.2c0-0.1-0.2-0.2-0.5-0.2H0C-0.2,602.3-0.5,602.4-0.5,602.5z"/>
		
			<linearGradient id="SVGID_00000129207991561739175930000003507189677686299814_" gradientUnits="userSpaceOnUse" x1="719.8144" y1="230.8736" x2="719.8144" y2="231.2506" gradientTransform="matrix(1 0 0 -1 0 790.0432)">
			<stop  offset="0" style="stop-color:#4AB08B"/>
			<stop  offset="1" style="stop-color:#008296"/>
		</linearGradient>
		<path style="fill-rule:evenodd;clip-rule:evenodd;fill:url(#SVGID_00000129207991561739175930000003507189677686299814_);" d="
			M-0.5,559c0,0.1,0.2,0.2,0.5,0.2h1439.5c0.3,0,0.5-0.1,0.5-0.2c0-0.1-0.2-0.2-0.5-0.2H0C-0.2,558.8-0.5,558.9-0.5,559z"/>
		
			<linearGradient id="SVGID_00000056385983548082466160000011910374354767277234_" gradientUnits="userSpaceOnUse" x1="719.8144" y1="245.7656" x2="719.8144" y2="246.1426" gradientTransform="matrix(1 0 0 -1 0 790.0432)">
			<stop  offset="0" style="stop-color:#4AB08B"/>
			<stop  offset="1" style="stop-color:#008296"/>
		</linearGradient>
		<path style="fill-rule:evenodd;clip-rule:evenodd;fill:url(#SVGID_00000056385983548082466160000011910374354767277234_);" d="
			M-0.5,544.1c0,0.1,0.2,0.2,0.5,0.2h1439.5c0.3,0,0.5-0.1,0.5-0.2c0-0.1-0.2-0.2-0.5-0.2H0C-0.2,543.9-0.5,544-0.5,544.1z"/>
		
			<linearGradient id="SVGID_00000072989590126725597540000003250366393212161708_" gradientUnits="userSpaceOnUse" x1="719.8144" y1="272.7546" x2="719.8144" y2="273.1316" gradientTransform="matrix(1 0 0 -1 0 790.0432)">
			<stop  offset="0" style="stop-color:#4AB08B"/>
			<stop  offset="1" style="stop-color:#008296"/>
		</linearGradient>
		<path style="fill-rule:evenodd;clip-rule:evenodd;fill:url(#SVGID_00000072989590126725597540000003250366393212161708_);" d="
			M-0.5,517.1c0,0.1,0.2,0.2,0.5,0.2h1439.5c0.3,0,0.5-0.1,0.5-0.2s-0.2-0.2-0.5-0.2H0C-0.2,516.9-0.5,517-0.5,517.1z"/>
		
			<linearGradient id="SVGID_00000090978519127987236680000011850191037595403710_" gradientUnits="userSpaceOnUse" x1="719.8144" y1="268.4926" x2="719.8144" y2="268.8706" gradientTransform="matrix(1 0 0 -1 0 790.0432)">
			<stop  offset="0" style="stop-color:#4AB08B"/>
			<stop  offset="1" style="stop-color:#008296"/>
		</linearGradient>
		<path style="fill-rule:evenodd;clip-rule:evenodd;fill:url(#SVGID_00000090978519127987236680000011850191037595403710_);" d="
			M-0.5,521.4c0,0.1,0.2,0.2,0.5,0.2h1439.5c0.3,0,0.5-0.1,0.5-0.2s-0.2-0.2-0.5-0.2H0C-0.2,521.2-0.5,521.3-0.5,521.4z"/>
		
			<linearGradient id="SVGID_00000085936013823503811000000003821637943771347330_" gradientUnits="userSpaceOnUse" x1="719.8144" y1="265.9436" x2="719.8144" y2="266.3206" gradientTransform="matrix(1 0 0 -1 0 790.0432)">
			<stop  offset="0" style="stop-color:#4AB08B"/>
			<stop  offset="1" style="stop-color:#008296"/>
		</linearGradient>
		<path style="fill-rule:evenodd;clip-rule:evenodd;fill:url(#SVGID_00000085936013823503811000000003821637943771347330_);" d="
			M-0.5,523.9c0,0.1,0.2,0.2,0.5,0.2h1439.5c0.3,0,0.5-0.1,0.5-0.2s-0.2-0.2-0.5-0.2H0C-0.2,523.7-0.5,523.8-0.5,523.9z"/>
		
			<linearGradient id="SVGID_00000034054877301212914690000004513694474654572165_" gradientUnits="userSpaceOnUse" x1="719.8144" y1="270.7476" x2="719.8144" y2="271.1246" gradientTransform="matrix(1 0 0 -1 0 790.0432)">
			<stop  offset="0" style="stop-color:#4AB08B"/>
			<stop  offset="1" style="stop-color:#008296"/>
		</linearGradient>
		<path style="fill-rule:evenodd;clip-rule:evenodd;fill:url(#SVGID_00000034054877301212914690000004513694474654572165_);" d="
			M-0.5,519.1c0,0.1,0.2,0.2,0.5,0.2h1439.5c0.3,0,0.5-0.1,0.5-0.2c0-0.1-0.2-0.2-0.5-0.2H0C-0.2,518.9-0.5,519-0.5,519.1z"/>
		
			<linearGradient id="SVGID_00000097473892844841901110000012836469765788028033_" gradientUnits="userSpaceOnUse" x1="719.8144" y1="276.1756" x2="719.8144" y2="276.5526" gradientTransform="matrix(1 0 0 -1 0 790.0432)">
			<stop  offset="0" style="stop-color:#4AB08B"/>
			<stop  offset="1" style="stop-color:#008296"/>
		</linearGradient>
		<path style="fill-rule:evenodd;clip-rule:evenodd;fill:url(#SVGID_00000097473892844841901110000012836469765788028033_);" d="
			M-0.5,513.7c0,0.1,0.2,0.2,0.5,0.2h1439.5c0.3,0,0.5-0.1,0.5-0.2c0-0.1-0.2-0.2-0.5-0.2H0C-0.2,513.5-0.5,513.6-0.5,513.7z"/>
		
			<linearGradient id="SVGID_00000106108552048173321170000010818627223667894709_" gradientUnits="userSpaceOnUse" x1="719.8144" y1="274.5536" x2="719.8144" y2="274.9306" gradientTransform="matrix(1 0 0 -1 0 790.0432)">
			<stop  offset="0" style="stop-color:#4AB08B"/>
			<stop  offset="1" style="stop-color:#008296"/>
		</linearGradient>
		<path style="fill-rule:evenodd;clip-rule:evenodd;fill:url(#SVGID_00000106108552048173321170000010818627223667894709_);" d="
			M-0.5,515.3c0,0.1,0.2,0.2,0.5,0.2h1439.5c0.3,0,0.5-0.1,0.5-0.2c0-0.1-0.2-0.2-0.5-0.2H0C-0.2,515.1-0.5,515.2-0.5,515.3z"/>
		
			<linearGradient id="SVGID_00000016795367825448844770000007153044914466707856_" gradientUnits="userSpaceOnUse" x1="719.8144" y1="277.6436" x2="719.8144" y2="278.0216" gradientTransform="matrix(1 0 0 -1 0 790.0432)">
			<stop  offset="0" style="stop-color:#4AB08B"/>
			<stop  offset="1" style="stop-color:#008296"/>
		</linearGradient>
		<path style="fill-rule:evenodd;clip-rule:evenodd;fill:url(#SVGID_00000016795367825448844770000007153044914466707856_);" d="
			M-0.5,512.2c0,0.1,0.2,0.2,0.5,0.2h1439.5c0.3,0,0.5-0.1,0.5-0.2s-0.2-0.2-0.5-0.2H0C-0.2,512-0.5,512.1-0.5,512.2z"/>
		
			<linearGradient id="SVGID_00000163783850168463483360000005835942303121615279_" gradientUnits="userSpaceOnUse" x1="719.8144" y1="259.6956" x2="719.8144" y2="260.0726" gradientTransform="matrix(1 0 0 -1 0 790.0432)">
			<stop  offset="0" style="stop-color:#4AB08B"/>
			<stop  offset="1" style="stop-color:#008296"/>
		</linearGradient>
		<path style="fill-rule:evenodd;clip-rule:evenodd;fill:url(#SVGID_00000163783850168463483360000005835942303121615279_);" d="
			M-0.5,530.2c0,0.1,0.2,0.2,0.5,0.2h1439.5c0.3,0,0.5-0.1,0.5-0.2c0-0.1-0.2-0.2-0.5-0.2H0C-0.2,530-0.5,530.1-0.5,530.2z"/>
		
			<linearGradient id="SVGID_00000099664071902400734640000008930696370343783826_" gradientUnits="userSpaceOnUse" x1="719.8144" y1="251.2316" x2="719.8144" y2="251.6096" gradientTransform="matrix(1 0 0 -1 0 790.0432)">
			<stop  offset="0" style="stop-color:#4AB08B"/>
			<stop  offset="1" style="stop-color:#008296"/>
		</linearGradient>
		<path style="fill-rule:evenodd;clip-rule:evenodd;fill:url(#SVGID_00000099664071902400734640000008930696370343783826_);" d="
			M-0.5,538.6c0,0.1,0.2,0.2,0.5,0.2h1439.5c0.3,0,0.5-0.1,0.5-0.2c0-0.1-0.2-0.2-0.5-0.2H0C-0.2,538.4-0.5,538.5-0.5,538.6z"/>
		
			<linearGradient id="SVGID_00000003806608814896288740000011784961991763892405_" gradientUnits="userSpaceOnUse" x1="719.8144" y1="263.0386" x2="719.8144" y2="263.4156" gradientTransform="matrix(1 0 0 -1 0 790.0432)">
			<stop  offset="0" style="stop-color:#4AB08B"/>
			<stop  offset="1" style="stop-color:#008296"/>
		</linearGradient>
		<path style="fill-rule:evenodd;clip-rule:evenodd;fill:url(#SVGID_00000003806608814896288740000011784961991763892405_);" d="
			M-0.5,526.8c0,0.1,0.2,0.2,0.5,0.2h1439.5c0.3,0,0.5-0.1,0.5-0.2c0-0.1-0.2-0.2-0.5-0.2H0C-0.2,526.6-0.5,526.7-0.5,526.8z"/>
		
			<linearGradient id="SVGID_00000155132301085070721660000011963834455610578351_" gradientUnits="userSpaceOnUse" x1="719.9824" y1="155.0216" x2="719.9824" y2="153.6666" gradientTransform="matrix(1 0 0 -1 0 790.0432)">
			<stop  offset="0" style="stop-color:#4AB08B"/>
			<stop  offset="1" style="stop-color:#008296"/>
		</linearGradient>
		<path style="fill-rule:evenodd;clip-rule:evenodd;fill:url(#SVGID_00000155132301085070721660000011963834455610578351_);" d="
			M-0.8,635.7c0-0.4,0.4-0.7,1-0.7h1439.5c0.6,0,1,0.3,1,0.7c0,0.4-0.4,0.7-1,0.7l-1439.5,0C-0.3,636.4-0.8,636.1-0.8,635.7z"/>
		
			<linearGradient id="SVGID_00000123436448129072999890000012233523829679249572_" gradientUnits="userSpaceOnUse" x1="1079" y1="153.6456" x2="1079" y2="90.6796" gradientTransform="matrix(1 0 0 -1 0 790.0432)">
			<stop  offset="0" style="stop-color:#4AB08B"/>
			<stop  offset="0.6435" style="stop-color:#008296"/>
			<stop  offset="1" style="stop-color:#0B254A"/>
		</linearGradient>
		<path style="fill-rule:evenodd;clip-rule:evenodd;fill:url(#SVGID_00000123436448129072999890000012233523829679249572_);" d="
			M1078.5,699.4v-63h1v63H1078.5z"/>
		
			<linearGradient id="SVGID_00000183239418702584716810000016539983670825874077_" gradientUnits="userSpaceOnUse" x1="720" y1="153.6456" x2="720" y2="90.6796" gradientTransform="matrix(1 0 0 -1 0 790.0432)">
			<stop  offset="0" style="stop-color:#4AB08B"/>
			<stop  offset="0.6435" style="stop-color:#008296"/>
			<stop  offset="1" style="stop-color:#0B254A"/>
		</linearGradient>
		<path style="fill-rule:evenodd;clip-rule:evenodd;fill:url(#SVGID_00000183239418702584716810000016539983670825874077_);" d="
			M719.5,699.4v-63h1v63H719.5z"/>
		
			<linearGradient id="SVGID_00000088112150670575587080000016576878712843469491_" gradientUnits="userSpaceOnUse" x1="359" y1="153.6456" x2="359" y2="90.6806" gradientTransform="matrix(1 0 0 -1 0 790.0432)">
			<stop  offset="0" style="stop-color:#4AB08B"/>
			<stop  offset="0.6435" style="stop-color:#008296"/>
			<stop  offset="1" style="stop-color:#0B254A"/>
		</linearGradient>
		<path style="fill-rule:evenodd;clip-rule:evenodd;fill:url(#SVGID_00000088112150670575587080000016576878712843469491_);" d="
			M358.5,699.4v-63h1v63H358.5z"/>
		
			<linearGradient id="SVGID_00000047045923970130502070000008286479771791035278_" gradientUnits="userSpaceOnUse" x1="719.9825" y1="92.0034" x2="719.9825" y2="90.6484" gradientTransform="matrix(1 0 0 -1 0 790.0432)">
			<stop  offset="0" style="stop-color:#4AB08B"/>
			<stop  offset="1" style="stop-color:#008296"/>
		</linearGradient>
		<path style="fill-rule:evenodd;clip-rule:evenodd;fill:url(#SVGID_00000047045923970130502070000008286479771791035278_);" d="
			M-0.8,698.7c0-0.4,0.4-0.7,1-0.7h1439.5c0.6,0,1,0.3,1,0.7c0,0.4-0.4,0.7-1,0.7l-1439.5,0C-0.3,699.4-0.8,699.1-0.8,698.7z"/>
	</g>
</g>
<g id="Page-1" class="st44">
	<g id="About---header-v2" transform="translate(-969.000000, -3742.000000)">
		<g id="Group-4-Copy" transform="translate(998.000000, 3766.000000)">
			<g id="Mask">
				<g>
					<path id="path-2_00000060721001566331900650000013518126401266711696_" class="st45" d="M1189.3,116.4
						c34.8,21.4,79.4,32.9,117.7,66.4s70.1,88.8,65.6,141.7c-4.4,53-45.1,103.3-95.8,117.1c-50.7,13.8-111.3-9.1-154.2-33.4
						c-42.9-24.3-68.3-50-119.9-63.4c-51.5-13.4-129.3-14.7-151.2-43.2c-21.7-28.6,12.7-84.3,39.8-134.5
						c27.2-50.1,47.1-94.8,81.6-116.3c34.4-21.5,83.1-19.9,119.9-3.4C1129.7,63.8,1154.6,95,1189.3,116.4z"/>
				</g>
				<g>
					
						<linearGradient id="path-2_00000090296479056958993550000018408141663713036930_" gradientUnits="userSpaceOnUse" x1="1912.4091" y1="500.183" x2="1911.9113" y2="500.183" gradientTransform="matrix(1060.9999 0 0 -825.3848 -2027692.75 413083.8125)">
						<stop  offset="0" style="stop-color:#00FFEB"/>
						<stop  offset="1" style="stop-color:#00FF74"/>
					</linearGradient>
					
						<path id="path-2_00000016754408632118570340000016540028398122810522_" style="fill:none;stroke:url(#path-2_00000090296479056958993550000018408141663713036930_);stroke-width:2.4895;" d="
						M1189.3,116.4c34.8,21.4,79.4,32.9,117.7,66.4s70.1,88.8,65.6,141.7c-4.4,53-45.1,103.3-95.8,117.1
						c-50.7,13.8-111.3-9.1-154.2-33.4c-42.9-24.3-68.3-50-119.9-63.4c-51.5-13.4-129.3-14.7-151.2-43.2
						c-21.7-28.6,12.7-84.3,39.8-134.5c27.2-50.1,47.1-94.8,81.6-116.3c34.4-21.5,83.1-19.9,119.9-3.4
						C1129.7,63.8,1154.6,95,1189.3,116.4z"/>
				</g>
			</g>
			<g id="Mask-Copy" class="st47">
				<g>
					<path id="path-6_00000040559697821974839240000009798272835896022708_" class="st45" d="M1182.9,126.5
						c32.1,19.7,73.2,30.3,108.4,61c35.2,30.7,64.5,81.6,60.4,130.2c-4.1,48.7-41.5,94.9-88.2,107.6c-46.7,12.6-102.5-8.4-142-30.7
						c-39.5-22.3-62.8-45.9-110.4-58.3c-47.4-12.3-119.1-13.5-139.2-39.7c-20-26.3,11.7-77.4,36.7-123.6c25-46,43.4-87.1,75.2-106.9
						c31.6-19.8,76.5-18.3,110.4-3.1C1128.1,78.1,1151,106.8,1182.9,126.5z"/>
				</g>
				<g>
					
						<linearGradient id="path-6_00000142887559957611009530000007225088259875343291_" gradientUnits="userSpaceOnUse" x1="1912.2939" y1="500.3302" x2="1911.796" y2="500.3302" gradientTransform="matrix(976.9999 0 0 -758.2613 -1866958.75 379621.3125)">
						<stop  offset="0" style="stop-color:#00FBFF"/>
						<stop  offset="1" style="stop-color:#00FF8C"/>
					</linearGradient>
					
						<path id="path-6_00000085250416950297889800000005118751264578807689_" style="fill:none;stroke:url(#path-6_00000142887559957611009530000007225088259875343291_);stroke-width:2.4895;" d="
						M1182.9,126.5c32.1,19.7,73.2,30.3,108.4,61c35.2,30.7,64.5,81.6,60.4,130.2c-4.1,48.7-41.5,94.9-88.2,107.6
						c-46.7,12.6-102.5-8.4-142-30.7c-39.5-22.3-62.8-45.9-110.4-58.3c-47.4-12.3-119.1-13.5-139.2-39.7
						c-20-26.3,11.7-77.4,36.7-123.6c25-46,43.4-87.1,75.2-106.9c31.6-19.8,76.5-18.3,110.4-3.1
						C1128.1,78.1,1151,106.8,1182.9,126.5z"/>
				</g>
			</g>
			<g id="Mask-Copy-2" class="st49">
				<g>
					<path id="path-10_00000011005745665925928070000010682790273013915314_" class="st45" d="M1175.8,137.5
						c29,17.8,66.1,27.3,98,55.1c31.8,27.8,58.3,73.7,54.6,117.6c-3.7,43.9-37.5,85.7-79.7,97.1c-42.2,11.4-92.6-7.6-128.4-27.7
						c-35.7-20.1-56.8-41.5-99.8-52.6c-42.8-11.2-107.7-12.2-125.8-35.8c-18.1-23.7,10.6-69.9,33.1-111.6
						c22.6-41.6,39.2-78.6,67.9-96.5c28.6-17.9,69.2-16.5,99.8-2.8C1126.2,93.9,1146.9,119.7,1175.8,137.5z"/>
				</g>
				<g>
					
						<linearGradient id="path-10_00000101062524328092059930000001852944791596243619_" gradientUnits="userSpaceOnUse" x1="1912.139" y1="500.5244" x2="1911.6411" y2="500.5244" gradientTransform="matrix(882.9999 0 0 -684.6987 -1687089.75 342948.75)">
						<stop  offset="0" style="stop-color:#00FFF3"/>
						<stop  offset="1" style="stop-color:#00FF7C"/>
					</linearGradient>
					
						<path id="path-10_00000073702806194543684320000015991093475593062833_" style="fill:none;stroke:url(#path-10_00000101062524328092059930000001852944791596243619_);stroke-width:2.4895;" d="
						M1175.8,137.5c29,17.8,66.1,27.3,98,55.1c31.8,27.8,58.3,73.7,54.6,117.6c-3.7,43.9-37.5,85.7-79.7,97.1
						c-42.2,11.4-92.6-7.6-128.4-27.7c-35.7-20.1-56.8-41.5-99.8-52.6c-42.8-11.2-107.7-12.2-125.8-35.8
						c-18.1-23.7,10.6-69.9,33.1-111.6c22.6-41.6,39.2-78.6,67.9-96.5c28.6-17.9,69.2-16.5,99.8-2.8
						C1126.2,93.9,1146.9,119.7,1175.8,137.5z"/>
				</g>
			</g>
			<g id="Mask-Copy-3" class="st51">
				<g>
					<path id="path-14_00000048496073132925309050000009628946759530177442_" class="st45" d="M1170.1,146.4
						c26.5,16.2,60.4,24.9,89.5,50.3c29.1,25.4,53.3,67.3,49.9,107.3c-3.4,40.1-34.3,78.3-72.8,88.7c-38.6,10.5-84.7-6.9-117.3-25.3
						c-32.7-18.4-51.9-37.9-91.2-48.1c-39.2-10.2-98.4-11.1-115-32.7c-16.5-21.6,9.6-63.9,30.3-101.9c20.7-38,35.9-71.8,62.1-88.1
						c26.1-16.3,63.2-15.1,91.2-2.6C1124.8,106.6,1143.7,130.2,1170.1,146.4z"/>
				</g>
				<g>
					
						<linearGradient id="path-14_00000069365281496843540890000012294763378316235191_" gradientUnits="userSpaceOnUse" x1="1911.9874" y1="500.7148" x2="1911.4895" y2="500.7148" gradientTransform="matrix(806.9999 0 0 -625.2827 -1541663.75 313328.5625)">
						<stop  offset="0" style="stop-color:#00FBFF"/>
						<stop  offset="1" style="stop-color:#00FF8C"/>
					</linearGradient>
					
						<path id="path-14_00000137831638904388036780000002164042511956125099_" style="fill:none;stroke:url(#path-14_00000069365281496843540890000012294763378316235191_);stroke-width:2.4895;" d="
						M1170.1,146.4c26.5,16.2,60.4,24.9,89.5,50.3c29.1,25.4,53.3,67.3,49.9,107.3c-3.4,40.1-34.3,78.3-72.8,88.7
						c-38.6,10.5-84.7-6.9-117.3-25.3c-32.7-18.4-51.9-37.9-91.2-48.1c-39.2-10.2-98.4-11.1-115-32.7
						c-16.5-21.6,9.6-63.9,30.3-101.9c20.7-38,35.9-71.8,62.1-88.1c26.1-16.3,63.2-15.1,91.2-2.6
						C1124.8,106.6,1143.7,130.2,1170.1,146.4z"/>
				</g>
			</g>
			<g id="Mask-Copy-4" class="st53">
				<g>
					<path id="path-18_00000165952697521189369330000016233387028822016420_" class="st45" d="M1163.4,156.6
						c23.6,14.5,53.8,22.2,79.8,44.8c25.9,22.6,47.5,60,44.5,95.7c-3,35.8-30.6,69.8-64.9,79.1c-34.4,9.3-75.4-6.1-104.5-22.5
						c-29.1-16.4-46.3-33.8-81.3-42.9c-34.9-9.1-87.6-9.9-102.4-29.1c-14.7-19.3,8.6-56.9,27-90.8c18.4-33.8,32-64,55.3-78.5
						c23.3-14.5,56.3-13.4,81.2-2.3C1123,121.1,1139.9,142.2,1163.4,156.6z"/>
				</g>
				<g>
					
						<linearGradient id="path-18_00000034808477689259867560000007657341368517144726_" gradientUnits="userSpaceOnUse" x1="1911.7719" y1="500.982" x2="1911.2739" y2="500.982" gradientTransform="matrix(718.9999 0 0 -557.3787 -1373275.75 279476.9688)">
						<stop  offset="0" style="stop-color:#00C0FF"/>
						<stop  offset="1" style="stop-color:#00FFC7"/>
					</linearGradient>
					
						<path id="path-18_00000092447902111283352680000016731954014642217401_" style="fill:none;stroke:url(#path-18_00000034808477689259867560000007657341368517144726_);stroke-width:2.4895;" d="
						M1163.4,156.6c23.6,14.5,53.8,22.2,79.8,44.8c25.9,22.6,47.5,60,44.5,95.7c-3,35.8-30.6,69.8-64.9,79.1
						c-34.4,9.3-75.4-6.1-104.5-22.5c-29.1-16.4-46.3-33.8-81.3-42.9c-34.9-9.1-87.6-9.9-102.4-29.1c-14.7-19.3,8.6-56.9,27-90.8
						c18.4-33.8,32-64,55.3-78.5c23.3-14.5,56.3-13.4,81.2-2.3C1123,121.1,1139.9,142.2,1163.4,156.6z"/>
				</g>
			</g>
		</g>
	</g>
</g>
<g>
	<path class="st55" d="M1292.1,260.5c-12-45-63.6-53.2-108.2-28.9c-37.4,20.3-64.3,60.7-65.2,96.4c-1.1,40.1,30.5,70.1,78.8,60.6
		C1258.1,376.6,1306.4,313.6,1292.1,260.5z"/>
	<path class="st55" d="M1129.3,365.8c14.8,19.1,24.7,26.2,32.5,29.5c12.7,6.2,28.6,8.3,47,4.6c60.7-12,108.9-75,94.7-128.1
		c-1.7-6.3-4.2-11.9-7.3-16.8c-5.8-9.1-17.7-20.1-23.3-24.3"/>
	<path class="st55" d="M1269.8,269.2c-7.9-35.1-46.8-43.6-82.4-25.3c-30.8,15.8-53.1,49-53.1,78.1c-0.1,32.1,26.4,54,64.3,44.8
		C1243.7,355.9,1278.8,308.9,1269.8,269.2z"/>
	<g>
		<g>
			<polygon class="st56" points="1161.6,314.1 1180.5,309.7 1189.5,323.6 1179.4,340.9 			"/>
			<polygon class="st55" points="1161.6,314.1 1180.5,309.7 1189.5,323.6 1179.4,340.9 			"/>
		</g>
		<g>
			<polygon class="st56" points="1217.6,333.1 1209,319.3 1189.5,323.6 1179.4,340.9 			"/>
			<polygon class="st55" points="1217.6,333.1 1209,319.3 1189.5,323.6 1179.4,340.9 			"/>
		</g>
		<g>
			<polygon class="st57" points="1181.6,275.5 1191,290.5 1180.5,309.7 1161.6,314.1 			"/>
			<polygon class="st55" points="1181.6,275.5 1191,290.5 1180.5,309.7 1161.6,314.1 			"/>
		</g>
		<g>
			<polygon class="st57" points="1241.7,295.4 1220.5,300.4 1209,319.3 1217.6,333.1 			"/>
			<polygon class="st55" points="1241.7,295.4 1220.5,300.4 1209,319.3 1217.6,333.1 			"/>
		</g>
		<g>
			<polygon class="st58" points="1211.5,285.4 1191,290.5 1180.5,309.7 1189.5,323.6 			"/>
			<polygon class="st55" points="1211.5,285.4 1191,290.5 1180.5,309.7 1189.5,323.6 			"/>
		</g>
		<g>
			<polygon class="st58" points="1211.5,285.4 1220.5,300.4 1209,319.3 1189.5,323.6 			"/>
			<polygon class="st55" points="1211.5,285.4 1220.5,300.4 1209,319.3 1189.5,323.6 			"/>
		</g>
		<g>
			<polygon class="st59" points="1232.9,280.1 1211.5,285.4 1220.5,300.4 			"/>
			<polygon class="st55" points="1232.9,280.1 1211.5,285.4 1220.5,300.4 			"/>
		</g>
		<g>
			<polygon class="st59" points="1202.3,270 1211.5,285.4 1191,290.5 			"/>
			<polygon class="st55" points="1202.3,270 1211.5,285.4 1191,290.5 			"/>
		</g>
		<g>
			<polygon class="st56" points="1191,290.5 1202.3,270 1181.6,275.5 			"/>
			<polygon class="st55" points="1191,290.5 1202.3,270 1181.6,275.5 			"/>
		</g>
		<g>
			<polygon class="st56" points="1220.5,300.4 1232.9,280.1 1241.7,295.4 			"/>
			<polygon class="st55" points="1220.5,300.4 1232.9,280.1 1241.7,295.4 			"/>
		</g>
		<g>
			<polygon class="st60" points="1232.9,280.1 1211.5,285.4 1202.3,270 1223.7,264.3 			"/>
			<polygon class="st55" points="1232.9,280.1 1211.5,285.4 1202.3,270 1223.7,264.3 			"/>
		</g>
	</g>
</g>
<g>
	<path class="st61" d="M1036.3,276.6c24.2,4.8,40.1-10.3,39.5-30.4c-0.5-17.9-13.9-38.2-32.7-48.3c-22.4-12.2-48.2-8.1-54.3,14.5
		C981.7,239,1006,270.6,1036.3,276.6z"/>
	<path class="st61" d="M998.5,197.4c-2.8,2.1-8.8,7.6-11.7,12.2c-1.6,2.5-2.8,5.3-3.7,8.4c-7.1,26.6,17,58.2,47.5,64.2
		c9.2,1.9,17.2,0.8,23.6-2.3c3.9-1.7,8.9-5.2,16.3-14.8"/>
	<path class="st61" d="M1035.8,265.6c19,4.6,32.3-6.4,32.2-22.5c0-14.6-11.2-31.2-26.6-39.2c-17.9-9.2-37.4-4.9-41.3,12.7
		C995.6,236.6,1013.2,260.2,1035.8,265.6z"/>
	<g>
		<g>
			<polygon class="st56" points="1045.4,252.7 1040.4,244 1044.9,237 1054.3,239.2 			"/>
			<polygon class="st61" points="1045.4,252.7 1040.4,244 1044.9,237 1054.3,239.2 			"/>
		</g>
		<g>
			<polygon class="st56" points="1045.4,252.7 1040.4,244 1030.6,241.8 1026.3,248.7 			"/>
			<polygon class="st61" points="1045.4,252.7 1040.4,244 1030.6,241.8 1026.3,248.7 			"/>
		</g>
		<g>
			<polygon class="st57" points="1054.3,239.2 1044.9,237 1039.6,227.4 1044.3,219.9 			"/>
			<polygon class="st61" points="1054.3,239.2 1044.9,237 1039.6,227.4 1044.3,219.9 			"/>
		</g>
		<g>
			<polygon class="st57" points="1026.3,248.7 1030.6,241.8 1024.8,232.4 1014.2,229.8 			"/>
			<polygon class="st61" points="1026.3,248.7 1030.6,241.8 1024.8,232.4 1014.2,229.8 			"/>
		</g>
		<g>
			<polygon class="st58" points="1040.4,244 1044.9,237 1039.6,227.4 1029.3,224.8 			"/>
			<polygon class="st61" points="1040.4,244 1044.9,237 1039.6,227.4 1029.3,224.8 			"/>
		</g>
		<g>
			<polygon class="st58" points="1040.4,244 1030.6,241.8 1024.8,232.4 1029.3,224.8 			"/>
			<polygon class="st61" points="1040.4,244 1030.6,241.8 1024.8,232.4 1029.3,224.8 			"/>
		</g>
		<g>
			<polygon class="st59" points="1024.8,232.4 1029.3,224.8 1018.6,222.2 			"/>
			<polygon class="st61" points="1024.8,232.4 1029.3,224.8 1018.6,222.2 			"/>
		</g>
		<g>
			<polygon class="st59" points="1039.6,227.4 1029.3,224.8 1033.9,217.1 			"/>
			<polygon class="st61" points="1039.6,227.4 1029.3,224.8 1033.9,217.1 			"/>
		</g>
		<g>
			<polygon class="st56" points="1044.3,219.9 1033.9,217.1 1039.6,227.4 			"/>
			<polygon class="st61" points="1044.3,219.9 1033.9,217.1 1039.6,227.4 			"/>
		</g>
		<g>
			<polygon class="st56" points="1014.2,229.8 1018.6,222.2 1024.8,232.4 			"/>
			<polygon class="st61" points="1014.2,229.8 1018.6,222.2 1024.8,232.4 			"/>
		</g>
		<g>
			<polygon class="st60" points="1023.2,214.3 1033.9,217.1 1029.3,224.8 1018.6,222.2 			"/>
			<polygon class="st61" points="1023.2,214.3 1033.9,217.1 1029.3,224.8 1018.6,222.2 			"/>
		</g>
	</g>
</g>
<g class="st62">
	<path class="st63" d="M1097.1,177.1c-5.8,15,6.9,27.8,24.2,30.1c14.5,2,30.3-3.8,37.8-13.6c8.5-10.9,5.8-25.7-9.6-32.9
		C1130.2,151.7,1103.9,159.4,1097.1,177.1z"/>
	<path class="st63" d="M1163.9,180.9c-0.2-8.3-1.5-12.3-3-14.8c-2.3-4.3-6.3-8.1-12.1-10.9c-19.3-9-45.6-1.3-52.4,16.4
		c-0.8,2.1-1.3,4.2-1.4,6.2c-0.2,3.7,0.8,9.2,1.5,11.5"/>
	<path class="st63" d="M1105.1,179.2c-4.9,11.4,4.1,21.7,17.8,23.8c11.8,1.9,24.8-2.8,30.7-10.9c6.6-8.9,3.6-20.4-8.8-25.6
		C1130,160.4,1110.7,166.3,1105.1,179.2z"/>
	<g>
		<g>
			<polygon class="st56" points="1144.3,188.7 1138.2,186.1 1138.5,180.4 1144.8,177.6 			"/>
			<polygon class="st63" points="1144.3,188.7 1138.2,186.1 1138.5,180.4 1144.8,177.6 			"/>
		</g>
		<g>
			<polygon class="st56" points="1132.6,172 1132.2,177.6 1138.5,180.4 1144.8,177.6 			"/>
			<polygon class="st63" points="1132.6,172 1132.2,177.6 1138.5,180.4 1144.8,177.6 			"/>
		</g>
		<g>
			<polygon class="st57" points="1130.9,195.4 1131.3,189.3 1138.2,186.1 1144.3,188.7 			"/>
			<polygon class="st63" points="1130.9,195.4 1131.3,189.3 1138.2,186.1 1144.3,188.7 			"/>
		</g>
		<g>
			<polygon class="st57" points="1118.2,177.6 1125.2,180.5 1132.2,177.6 1132.6,172 			"/>
			<polygon class="st63" points="1118.2,177.6 1125.2,180.5 1132.2,177.6 1132.6,172 			"/>
		</g>
		<g>
			<polygon class="st58" points="1124.6,186.5 1131.3,189.3 1138.2,186.1 1138.5,180.4 			"/>
			<polygon class="st63" points="1124.6,186.5 1131.3,189.3 1138.2,186.1 1138.5,180.4 			"/>
		</g>
		<g>
			<polygon class="st58" points="1124.6,186.5 1125.2,180.5 1132.2,177.6 1138.5,180.4 			"/>
			<polygon class="st63" points="1124.6,186.5 1125.2,180.5 1132.2,177.6 1138.5,180.4 			"/>
		</g>
		<g>
			<polygon class="st59" points="1117.6,183.7 1124.6,186.5 1125.2,180.5 			"/>
			<polygon class="st63" points="1117.6,183.7 1124.6,186.5 1125.2,180.5 			"/>
		</g>
		<g>
			<polygon class="st59" points="1124,192.7 1124.6,186.5 1131.3,189.3 			"/>
			<polygon class="st63" points="1124,192.7 1124.6,186.5 1131.3,189.3 			"/>
		</g>
		<g>
			<polygon class="st56" points="1131.3,189.3 1124,192.7 1130.9,195.4 			"/>
			<polygon class="st63" points="1131.3,189.3 1124,192.7 1130.9,195.4 			"/>
		</g>
		<g>
			<polygon class="st56" points="1125.2,180.5 1117.6,183.7 1118.2,177.6 			"/>
			<polygon class="st63" points="1125.2,180.5 1117.6,183.7 1118.2,177.6 			"/>
		</g>
		<g>
			<polygon class="st60" points="1117.6,183.7 1124.6,186.5 1124,192.7 1116.9,189.9 			"/>
			<polygon class="st63" points="1117.6,183.7 1124.6,186.5 1124,192.7 1116.9,189.9 			"/>
		</g>
	</g>
</g>
</svg>
