<?xml version="1.0" encoding="utf-8"?>
<!-- Generator: Adobe Illustrator 26.5.0, SVG Export Plug-In . SVG Version: 6.00 Build 0)  -->
<svg version="1.1" id="katman_1" xmlns="http://www.w3.org/2000/svg" xmlns:xlink="http://www.w3.org/1999/xlink" x="0px" y="0px"
	 viewBox="0 0 142 164" style="enable-background:new 0 0 142 164;" xml:space="preserve">
<style type="text/css">
	.st0{fill-rule:evenodd;clip-rule:evenodd;fill:#348AA7;}
	.st1{fill-rule:evenodd;clip-rule:evenodd;fill:#55CF98;}
	.st2{fill-rule:evenodd;clip-rule:evenodd;fill:#1A6882;}
	.st3{fill-rule:evenodd;clip-rule:evenodd;fill:#76E8B5;}
	.st4{fill-rule:evenodd;clip-rule:evenodd;fill:#12556B;}
	.st5{fill-rule:evenodd;clip-rule:evenodd;fill:#BCE784;}
	.st6{fill-rule:evenodd;clip-rule:evenodd;fill:#48B081;}
	.st7{fill-rule:evenodd;clip-rule:evenodd;fill:#57C795;}
	.st8{fill-rule:evenodd;clip-rule:evenodd;fill:#0D3E4F;}
</style>
<g>
	<g>
		<g>
			<polygon class="st0" points="35.5,61.5 35.5,20.5 0,41 			"/>
			<polygon class="st1" points="71,41 35.5,61.5 35.5,102.5 71,123 			"/>
			<polygon class="st2" points="0,41 35.5,61.5 35.5,102.5 0,123 			"/>
			<polygon class="st3" points="35.5,20.5 71,41 35.5,61.5 			"/>
			<polygon class="st4" points="0,123 35.5,102.5 71,123 71,164 			"/>
			<polygon class="st5" points="106.5,20.5 71,41 35.5,20.5 71,0 			"/>
			<polygon class="st6" points="71,41 106.5,61.5 106.5,102.5 71,123 			"/>
			<polygon class="st2" points="142,41 106.5,61.5 106.5,102.5 142,123 			"/>
			<polygon class="st7" points="106.5,20.5 71,41 106.5,61.5 			"/>
			<polygon class="st8" points="142,123 106.5,102.5 71,123 71,164 			"/>
			<polygon class="st0" points="106.5,61.5 106.5,20.5 142,41 			"/>
		</g>
	</g>
</g>
</svg>
