<?xml version="1.0" encoding="utf-8"?>
<!-- Generator: Adobe Illustrator 26.5.0, SVG Export Plug-In . SVG Version: 6.00 Build 0)  -->
<svg version="1.1" id="katman_1" xmlns="http://www.w3.org/2000/svg" xmlns:xlink="http://www.w3.org/1999/xlink" x="0px" y="0px"
	 viewBox="0 0 720 164" style="enable-background:new 0 0 720 164;" xml:space="preserve">
<style type="text/css">
	.st0{fill-rule:evenodd;clip-rule:evenodd;fill:#348AA7;}
	.st1{fill-rule:evenodd;clip-rule:evenodd;fill:#55CF98;}
	.st2{fill-rule:evenodd;clip-rule:evenodd;fill:#1A6882;}
	.st3{fill-rule:evenodd;clip-rule:evenodd;fill:#76E8B5;}
	.st4{fill-rule:evenodd;clip-rule:evenodd;fill:#12556B;}
	.st5{fill-rule:evenodd;clip-rule:evenodd;fill:#BCE784;}
	.st6{fill-rule:evenodd;clip-rule:evenodd;fill:#48B081;}
	.st7{fill-rule:evenodd;clip-rule:evenodd;fill:#57C795;}
	.st8{fill-rule:evenodd;clip-rule:evenodd;fill:#0D3E4F;}
	.st9{fill:#FFFFFF;}
</style>
<g>
	<g>
		<g>
			<polygon class="st0" points="35.5,61.5 35.5,20.5 0,41 			"/>
			<polygon class="st1" points="71,41 35.5,61.5 35.5,102.5 71,123 			"/>
			<polygon class="st2" points="0,41 35.5,61.5 35.5,102.5 0,123 			"/>
			<polygon class="st3" points="35.5,20.5 71,41 35.5,61.5 			"/>
			<polygon class="st4" points="0,123 35.5,102.5 71,123 71,164 			"/>
			<polygon class="st5" points="106.5,20.5 71,41 35.5,20.5 71,0 			"/>
			<polygon class="st6" points="71,41 106.5,61.5 106.5,102.5 71,123 			"/>
			<polygon class="st2" points="142,41 106.5,61.5 106.5,102.5 142,123 			"/>
			<polygon class="st7" points="106.5,20.5 71,41 106.5,61.5 			"/>
			<polygon class="st8" points="142,123 106.5,102.5 71,123 71,164 			"/>
			<polygon class="st0" points="106.5,61.5 106.5,20.5 142,41 			"/>
		</g>
	</g>
	<g>
		<path class="st9" d="M189.6,110.1c-2.5-3.7-3.8-8-3.8-12.8c0-0.7,0.4-1.1,1.1-1.1h7.1c0.7,0,1.1,0.4,1.1,1.1
			c0.1,4.6,2,8.4,5.5,11.3c3.5,3,8.1,4.4,13.8,4.4c6.1,0,10.9-1.2,14.3-3.5c3.4-2.4,5-6,5-10.8c0-3.5-1.7-6.2-5.2-8.1
			c-3.4-1.9-8.5-3.7-15.1-5.4c-8.4-2.1-14.8-4.9-19.1-8.2c-4.3-3.3-6.5-8.1-6.5-14.2c0-4.4,1.2-8.1,3.6-11.3
			c2.4-3.1,5.5-5.5,9.5-7.1s8.3-2.4,13-2.4c5.4,0,10.1,1,14,3s7,4.6,9.2,7.9c2.1,3.3,3.3,6.9,3.4,10.7c0,0.7-0.4,1.1-1.1,1.1h-7.1
			c-0.7,0-1.1-0.4-1.1-1.1c-0.2-3.8-2-6.8-5.3-9.2c-3.3-2.4-7.3-3.6-12-3.6c-4.9,0-8.9,1-12,3.1c-3.1,2-4.7,4.8-4.7,8.4
			c0,3.8,1.7,6.7,5,8.7c3.4,2,8.5,4,15.5,5.8c8.1,2.1,14.4,4.8,18.8,8c4.4,3.2,6.6,7.6,6.6,13.3c0,7.8-2.6,13.7-7.8,17.7
			c-5.2,4-12.1,6-20.9,6c-5.3,0-10.2-1-14.5-3.1C195.5,116.8,192.1,113.8,189.6,110.1z"/>
		<path class="st9" d="M254,108c-2.2-4.4-3.3-9.4-3.3-15s1.1-10.6,3.3-15c2.2-4.4,5.3-7.8,9.2-10.3c3.9-2.4,8.4-3.7,13.3-3.7
			c3.9,0,7.3,0.6,10,1.8c2.8,1.2,5.3,3,7.7,5.3v-4.9c0-0.7,0.4-1.1,1.1-1.1h6.4c0.7,0,1.1,0.4,1.1,1.1v53.5c0,0.7-0.4,1.1-1.1,1.1
			h-6.4c-0.7,0-1.1-0.4-1.1-1.1v-4.8c-4.3,4.7-10.2,7-17.8,7c-5,0-9.4-1.2-13.3-3.7C259.3,115.8,256.2,112.4,254,108z M295.2,93
			c0-6.2-1.6-11.2-4.7-15c-3.1-3.8-7.4-5.7-13-5.7c-5.6,0-10,1.9-13.1,5.7s-4.7,8.8-4.7,15s1.6,11.2,4.7,15
			c3.1,3.8,7.5,5.7,13.1,5.7c5.5,0,9.9-1.9,13-5.7C293.6,104.2,295.2,99.2,295.2,93z"/>
		<path class="st9" d="M316.8,44.3c0-0.7,0.4-1.1,1.1-1.1h6.4c0.7,0,1.1,0.4,1.1,1.1v44.6l24.3-22.7c0.7-0.7,1.3-1,2-1h9
			c0.6,0,0.9,0.3,0.9,0.8c0,0.3-0.1,0.6-0.4,0.9l-19.7,18.4l22.2,33.6c0.3,0.4,0.4,0.8,0.4,1.1c0,0.6-0.3,0.9-1,0.9h-7.8
			c-0.7,0-1.3-0.3-1.8-1l-18.9-28.3l-9.2,8.8v19.4c0,0.7-0.4,1.1-1.1,1.1h-6.4c-0.7,0-1.1-0.4-1.1-1.1V44.3z"/>
		<path class="st9" d="M369.5,108c-2.2-4.4-3.3-9.4-3.3-15s1.1-10.6,3.3-15c2.2-4.4,5.3-7.8,9.2-10.3c3.9-2.4,8.4-3.7,13.3-3.7
			c3.9,0,7.3,0.6,10,1.8c2.8,1.2,5.3,3,7.7,5.3v-4.9c0-0.7,0.4-1.1,1.1-1.1h6.4c0.7,0,1.1,0.4,1.1,1.1v53.5c0,0.7-0.4,1.1-1.1,1.1
			h-6.4c-0.7,0-1.1-0.4-1.1-1.1v-4.8c-4.3,4.7-10.2,7-17.8,7c-5,0-9.4-1.2-13.3-3.7S371.7,112.4,369.5,108z M410.7,93
			c0-6.2-1.6-11.2-4.7-15s-7.4-5.7-13-5.7c-5.6,0-10,1.9-13.1,5.7s-4.7,8.8-4.7,15s1.6,11.2,4.7,15c3.1,3.8,7.5,5.7,13.1,5.7
			c5.5,0,9.9-1.9,13-5.7C409.1,104.2,410.7,99.2,410.7,93z"/>
		<path class="st9" d="M431.3,44.3c0-0.7,0.4-1.1,1.1-1.1h9.5c0.7,0,1.1,0.4,1.1,1.1v9.5c0,0.7-0.4,1.1-1.1,1.1h-9.5
			c-0.7,0-1.1-0.4-1.1-1.1V44.3z M432.9,66.2c0-0.7,0.4-1.1,1.1-1.1h6.4c0.7,0,1.1,0.4,1.1,1.1v53.5c0,0.7-0.4,1.1-1.1,1.1H434
			c-0.7,0-1.1-0.4-1.1-1.1V66.2z"/>
		<path class="st9" d="M498.2,119.7l-27-75.1c-0.1-0.4-0.2-0.7-0.2-0.8c0-0.4,0.3-0.7,1-0.7h8.7c0.7,0,1.1,0.4,1.3,1.1l22.5,65.5
			l22.5-65.5c0.2-0.7,0.7-1.1,1.3-1.1h8.7c0.7,0,1,0.2,1,0.7c0,0.1-0.1,0.3-0.2,0.8l-27,75.1c-0.1,0.4-0.3,0.7-0.4,0.9
			c-0.1,0.1-0.4,0.2-0.8,0.2h-10.2c-0.4,0-0.6-0.1-0.8-0.2C498.5,120.5,498.4,120.2,498.2,119.7z"/>
		<path class="st9" d="M538.6,108c-2.2-4.4-3.3-9.4-3.3-15s1.1-10.6,3.3-15c2.2-4.4,5.3-7.8,9.2-10.3c3.9-2.4,8.4-3.7,13.3-3.7
			c3.9,0,7.3,0.6,10,1.8c2.8,1.2,5.3,3,7.7,5.3v-4.9c0-0.7,0.4-1.1,1.1-1.1h6.4c0.7,0,1.1,0.4,1.1,1.1v53.5c0,0.7-0.4,1.1-1.1,1.1
			H580c-0.7,0-1.1-0.4-1.1-1.1v-4.8c-4.3,4.7-10.2,7-17.8,7c-5,0-9.4-1.2-13.3-3.7S540.8,112.4,538.6,108z M579.8,93
			c0-6.2-1.6-11.2-4.7-15s-7.4-5.7-13-5.7c-5.6,0-10,1.9-13.1,5.7s-4.7,8.8-4.7,15s1.6,11.2,4.7,15c3.1,3.8,7.5,5.7,13.1,5.7
			c5.5,0,9.9-1.9,13-5.7C578.2,104.2,579.8,99.2,579.8,93z"/>
		<path class="st9" d="M601.4,101.7V66.2c0-0.7,0.4-1.1,1.1-1.1h6.4c0.7,0,1.1,0.4,1.1,1.1v34.2c0,4.4,1.1,7.8,3.3,10
			c2.2,2.2,5.3,3.3,9.4,3.3c4.9,0,8.8-1.7,11.9-5.2c3-3.5,4.5-8.5,4.5-15V66.2c0-0.7,0.4-1.1,1.1-1.1h6.4c0.7,0,1.1,0.4,1.1,1.1
			v53.5c0,0.7-0.4,1.1-1.1,1.1h-6.4c-0.7,0-1.1-0.4-1.1-1.1v-6.3c-2.2,2.7-4.9,4.8-8,6.3s-6.6,2.2-10.4,2.2
			c-5.9,0-10.6-1.8-14.1-5.3C603.1,113.1,601.4,108.1,601.4,101.7z"/>
		<path class="st9" d="M662.2,44.3c0-0.7,0.4-1.1,1.1-1.1h6.4c0.7,0,1.1,0.4,1.1,1.1v75.4c0,0.7-0.4,1.1-1.1,1.1h-6.4
			c-0.7,0-1.1-0.4-1.1-1.1V44.3z"/>
		<path class="st9" d="M689.7,105.1V73.3h-9.9c-0.7,0-1.1-0.4-1.1-1.1v-6c0-0.7,0.4-1.1,1.1-1.1h9.9v-16c0-0.7,0.4-1.1,1.1-1.1h6.4
			c0.7,0,1.1,0.4,1.1,1.1v16h18.4c0.7,0,1.1,0.4,1.1,1.1v6c0,0.7-0.4,1.1-1.1,1.1h-18.4v31c0,6.3,2.9,9.4,8.8,9.4
			c2.1,0,3.9-0.1,5.4-0.3c1.5-0.2,3.1-0.6,4.8-1.2c0.5-0.2,0.9-0.3,1.1-0.3c0.5,0,0.8,0.3,0.8,1v5.5c0,0.5-0.1,0.9-0.2,1.1
			c-0.1,0.2-0.4,0.4-0.7,0.6c-3.3,1.3-7.3,1.9-11.9,1.9c-5.3,0-9.4-1.5-12.3-4.5C691.2,114.4,689.7,110.3,689.7,105.1z"/>
	</g>
</g>
</svg>
